<svg width="241" height="179" viewBox="0 0 241 179" fill="none" xmlns="http://www.w3.org/2000/svg">
<path d="M1.20988 174.4C1.20988 174.4 9.53988 155.15 21.8799 133.93C22.0499 133.64 22.2299 133.33 22.4099 133.03C22.9999 132.03 23.5999 131 24.2299 129.96C24.4199 129.64 24.5999 129.33 24.7899 129.01C24.8199 128.96 24.8599 128.9 24.8899 128.85C25.1699 128.39 25.4499 127.92 25.7299 127.45C26.3999 126.34 27.0999 125.19 27.8099 124.03C27.8899 123.89 27.9699 123.76 28.0599 123.62C28.0999 123.55 28.1399 123.48 28.1799 123.42C28.4799 122.93 28.7799 122.44 29.0899 121.94C30.1899 120.16 31.3099 118.35 32.4899 116.47C32.6399 116.23 32.7999 115.99 32.9499 115.75C32.9699 115.72 32.9899 115.69 33.0099 115.66C34.0499 114.01 35.1199 112.32 36.2299 110.6C36.6899 109.88 37.1599 109.15 37.6399 108.41C38.5199 107.04 39.4199 105.65 40.3399 104.24C40.8299 103.49 41.3099 102.74 41.8099 101.97C43.1499 99.9199 44.5199 97.8399 45.9299 95.6999V95.6799C45.9299 95.6799 45.9499 95.6699 45.9499 95.6599C46.1199 95.3999 46.2999 95.1299 46.4799 94.8699C46.7299 94.4899 46.9899 94.0999 47.2499 93.7099C48.2699 92.1699 49.3199 90.6099 50.3799 89.0199C50.6499 88.6199 50.9099 88.2299 51.1799 87.8299C51.2599 87.7099 51.3499 87.5799 51.4299 87.4599C51.6499 87.1399 51.8699 86.7999 52.0899 86.4799C53.5899 84.2499 55.1299 81.9799 56.7099 79.6499L61.2899 29.1699L63.5099 4.38991C63.7499 1.71991 61.2199 -0.350091 58.6499 0.399909L12.2999 13.9499C7.90988 15.2299 4.60988 18.8799 3.76988 23.3799L0.339875 41.8499C-0.0401252 43.8699 1.74988 45.6199 3.75988 45.1999L14.9399 41.7399C16.1299 41.4999 17.2099 42.4899 17.0599 43.6899L0.96988 174.48C0.68988 176.74 2.45988 178.74 4.73988 178.74C2.59988 178.74 0.939875 176.62 1.19988 174.38L1.20988 174.4Z" fill="#F63A70"/>
<path d="M235.37 33.31H205.26C196.6 33.31 188.55 36.65 182.62 42.06L181.85 42.7C161.92 59.24 144.6 78.83 130.61 100.74L130.22 101.35C130.22 101.35 131.65 90.82 135.83 78.28C138.73 69.57 142.02 60.96 143.22 57.88L143.43 57.3C143.59 56.81 143.68 56.28 143.68 55.71C143.68 52.75 141.28 50.35 138.32 50.35H97.3401C88.2901 50.35 80.0901 53.95 74.0801 59.8L73.1901 60.61C66.9301 66.65 61.6701 73.24 56.5901 80.08L53.4501 114.29L50.1601 150.49L49.3401 159.47C62.4501 128.83 81.5001 101.33 105.06 78.44L91.4501 138.34V138.72C91.4501 141.68 93.8501 144.08 96.8101 144.08H127.52C139.67 144.08 150.3 137.59 156.13 127.88L156.65 127.02C176.86 93 204.91 64.2 238.32 43.1L238.7 42.84C239 42.6 239.27 42.34 239.51 42.04C240.27 41.12 240.72 39.93 240.72 38.64C240.72 35.68 238.32 33.28 235.36 33.28L235.37 33.31Z" fill="#7A3CE2"/>
<path d="M53.45 115.31L56.59 81.0999L56.7299 79.5898C56.7299 79.5898 56.7 79.6299 56.69 79.6599L56.55 81.1599L53.45 115.31Z" fill="#0344DC"/>
<path d="M53.4499 115.31L56.5499 81.1602L56.6899 79.6602C55.1099 81.9802 53.5799 84.2502 52.0699 86.4902C51.8499 86.8202 51.6299 87.1502 51.4099 87.4702C51.3299 87.5902 51.2399 87.7201 51.1599 87.8401C50.8899 88.2401 50.6299 88.6302 50.3599 89.0302C49.2999 90.6202 48.2599 92.1802 47.2299 93.7202C46.9699 94.1002 46.7099 94.4902 46.4599 94.8802C46.2899 95.1402 46.1099 95.4102 45.9299 95.6702C45.9299 95.6702 45.9299 95.6802 45.9199 95.6902V95.7102H45.9099C44.4899 97.8502 43.1299 99.9301 41.7899 101.98C41.2899 102.75 40.7999 103.49 40.3099 104.25C39.3899 105.66 38.4899 107.05 37.6099 108.42C37.1399 109.15 36.6599 109.89 36.1999 110.61C35.0999 112.33 34.0199 114.02 32.9799 115.67C32.9599 115.7 32.9399 115.73 32.9199 115.76C32.7699 116 32.6099 116.24 32.4599 116.48C31.2799 118.36 30.1499 120.17 29.0599 121.95C28.7499 122.45 28.4499 122.94 28.1499 123.43C28.1099 123.5 28.0699 123.57 28.0199 123.63C27.9399 123.77 27.8599 123.9 27.7699 124.04C27.0599 125.2 26.3699 126.34 25.6899 127.46C25.4099 127.93 25.1299 128.39 24.8499 128.86C24.8199 128.91 24.7799 128.97 24.7499 129.02C24.5599 129.34 24.3699 129.65 24.1899 129.97C23.5699 131.01 22.9599 132.04 22.3699 133.04C22.1999 133.34 22.0099 133.64 21.8399 133.94C9.49994 155.15 1.17994 174.4 1.16994 174.41C0.909938 176.65 2.56994 178.77 4.70994 178.77H44.3599C44.9799 178.77 45.5599 178.57 46.0599 178.26C46.1199 178.22 46.1799 178.2 46.2399 178.16C46.2399 178.16 46.2499 178.15 46.2599 178.14C47.1999 177.52 47.8599 176.51 47.9599 175.31L49.2999 160.51L50.1199 151.53L53.4099 115.33L53.4499 115.31Z" fill="#0344DC"/>
</svg>
