<?xml version="1.0" encoding="UTF-8"?><svg id="a" xmlns="http://www.w3.org/2000/svg" viewBox="0 0 178.9909 35.0031">
<title>SHOPYY-logo - brandlogos.net</title><path d="M36.796,8.892c-.0583-1.9244-1.1736-3.6597-2.9-4.512.1007.4686.1606.9451.179,1.424l1.758,23.012v.13c-.0017,1.8594-.6722,3.6561-1.889,5.062,2.5096-.4058,4.3564-2.5687,4.364-5.111l-1.512-20.005Z" style="fill:#634bff;"/><path d="M32.124,5.86C32.035,2.5911,29.3542-.0099,26.084,0L7.702.032c-3.2736.0061-5.9459,2.6202-6.024,5.8929L0,28.802v.2111c.0209,3.319,2.7209,5.9967,6.04,5.99l21.833-.048c3.3188-.0027,6.0113-2.6873,6.024-6.006l-1.773-23.0891ZM24.341,9.907c.0056,4.0814-3.2986,7.3945-7.3799,7.4h-.0611c-4.0933.01-7.4256-3.2888-7.457-7.382v-1.2629c0-.6835.554-1.2375,1.2375-1.2375s1.2375.5541,1.2375,1.2375v1.2629c-.0023,1.3107.5262,2.5664,1.465,3.481.9318.9218,2.1893,1.4396,3.5,1.441h.032c2.7264-.0066,4.9368-2.2117,4.95-4.938v-1.262c0-.6835.554-1.2375,1.2375-1.2375s1.2375.5541,1.2375,1.2375l.001,1.2599Z" style="fill:#634bff;"/><path d="M136.424,7.7631c-1.324-1.3328-3.1264-2.0801-5.005-2.075h-9.275c-.1657,0-.3.1343-.3.3h0v22.8669c0,.1656.1343.3.3.3h4.465c.1657,0,.3-.1343.3-.3h0v-9.016h4.508c3.908,0,7.076-3.168,7.0761-7.0759,0-1.875-.7442-3.6733-2.0691-5.0001ZM131.419,14.8731h-4.508v-4.219h4.508c1.165,0,2.1095.9445,2.1095,2.1095s-.9445,2.1095-2.1095,2.1095Z"/><path d="M91.332,5.683h-4.461c-.169,0-.306.137-.306.306h0v8.881h-7.612V5.9931c.0006-.1685-.1355-.3054-.304-.306h-4.463c-.169,0-.306.137-.306.306h0v22.866c0,.1689.137.306.306.306h4.461c.169,0,.306-.137.306-.306h0v-8.912h7.612v8.912c0,.1689.137.306.306.306h4.461c.169,0,.306-.137.306-.306h0V5.9931c.0022-.1689-.1329-.3077-.3019-.3101h-.0041Z"/><path d="M70.162,5.682h-11.335c-3.1284-.0416-5.8598,2.1099-6.552,5.161-.668,3.1724,1.1075,6.3512,4.159,7.446l7.94,2.915c.7605.2747,1.1543,1.1138.8796,1.8743-.0103.0286-.0215.0569-.0336.0847-.2487.543-.7959.8867-1.393.875h-11.286c-.1246-.0016-.2373.074-.283.1899l-1.938,4.5129c-.0641.1558.0103.334.166.3981.0371.0153.0768.0231.1169.0229h13.044c3.3958.0471,6.2971-2.4375,6.773-5.8.3735-3.049-1.4157-5.9496-4.308-6.984l-7.94-2.915c-.714-.2588-1.0829-1.0472-.8242-1.7612.0099-.0272.0206-.0542.0322-.0808.2336-.5094.7477-.8313,1.308-.819h11.478c.169,0,.306-.137.306-.306h0v-4.514c-.0034-.1682-.1418-.302-.31-.2998Z"/><path d="M158.446,5.689h-4.908c-.1216.0002-.2315.0725-.28.184l-3.916,9.0229-3.9-8.98c-.0472-.1125-.1579-.1853-.28-.184h-5.024c-.169.0006-.3055.1381-.3049.307.0001.0413.0086.0822.0249.12l6.636,15.295-.389.918c-.4403,1.0146-1.4409,1.6711-2.547,1.671h-1.8c-.1242-.0002-.2361.075-.283.1899l-1.944,4.5c-.0641.1558.0103.334.166.3981.0371.0153.0768.0231.1169.0229h3.738c3.1459.0017,5.992-1.8662,7.242-4.7531l7.929-18.29c.064-.1564-.0108-.3351-.1672-.3992-.0349-.0143-.0721-.022-.1097-.0227Z"/><path d="M178.693,5.689h-4.909c-.122-.0004-.2326.0719-.281.184l-3.917,9.0229-3.9-8.98c-.0483-.1117-.1583-.184-.28-.184h-5.022c-.169,0-.306.1371-.306.306,0,.0416.0085.0828.025.121l6.637,15.295-.389.918c-.4402,1.0146-1.4409,1.6711-2.547,1.671h-1.8c-.1242-.0002-.2361.075-.283.1899l-1.945,4.5c-.0635.1566.012.3351.1685.3986.0364.0148.0753.0223.1145.0225h3.738c3.1458.0012,5.9915-1.8666,7.242-4.7531l7.929-18.29c.064-.1564-.0108-.3351-.1672-.3992-.0343-.014-.0708-.0217-.1078-.0227Z"/><path d="M106.699,5.7171c-6.4617.0028-11.6978,5.2433-11.695,11.705.0027,6.4618,5.2433,11.6978,11.705,11.6951,6.4598-.0028,11.695-5.2402,11.695-11.7001-.0094-6.4597-5.2452-11.6934-11.705-11.7ZM106.699,24.197c-3.7417,0-6.775-3.0333-6.775-6.775,0-3.7417,3.0333-6.775,6.775-6.775s6.7744,3.0327,6.775,6.774c.0005,3.7417-3.0323,6.7754-6.774,6.776h-.001Z"/></svg>