<svg width="162" height="40" viewBox="0 0 162 40" fill="none" xmlns="http://www.w3.org/2000/svg"><path d="M154.318 27.2l2.881-13.2364L157.748 11.3455l-.137 2.6181L156.787 26.6182 154.318 27.2zm-6.858 7.7091H152.672L153.495 31.1273h3.018L156.239 34.9091H161.588L162 5.09091H155.141L147.46 34.9091zM146.225 34.9091 146.774 30.5455H141.836C142.11 29.8182 142.384 29.2364 142.659 28.5091L150.203 5.09091H139.641L139.092 9.45455H143.619C143.345 10.0364 143.07 10.7636 142.796 11.6364L135.114 34.9091h11.111zm-11.797.0L134.977 30.5455H130.039C130.313 29.8182 130.588 29.2364 130.862 28.5091L138.544 5.09091H127.981L127.433 9.45455h4.526C131.685 10.0364 131.411 10.7636 131.136 11.6364l-7.681 23.2727h10.973zM115.362 27.2 118.242 13.9636 118.791 11.3455l-.137 2.6181L117.831 26.6182 115.362 27.2zm-6.859 7.7091h5.212L114.539 31.1273h3.017L117.282 34.9091H122.632L123.043 5.09091h-6.858L108.503 34.9091zm-10.8366.0H107.543L108.229 30.4h-4.664l3.429-25.30909h-5.212L97.6664 34.9091zM91.6308 20.2182H90.3963L91.9052 9.30909H93.1397C93.9627 9.30909 94.2371 9.74545 94.0999 10.7636L93.0025 18.6182c-.137100000000004 1.1636-.6858 1.6-1.3717 1.6zM93.5512 5.09091H87.2413L83.1262 34.9091H88.3387l1.5089-10.4727H91.9052C95.6088 24.4364 97.6664 22.5455 98.2151 18.1818L99.1753 11.6364C99.724 7.27273 97.9407 5.09091 93.5512 5.09091zM76.8163 28.8C76.6791 30.4 76.1304 31.1273 75.1702 31.1273S73.7985 30.5455 74.0728 28.6545L76.5419 11.2C76.8163 9.6 77.2278 8.87273 78.188 8.87273S79.5597 9.45455 79.2853 11.3455L76.8163 28.8zM82.0288 28.5091l2.1947-16C85.0466 6.54546 82.3031 4.65455 78.188 4.65455 74.0728 4.65455 71.7409 6.83636 71.055 11.6364L68.8603 27.6364C68.0373 33.6 70.7807 35.4909 74.8959 35.4909 79.011 35.3455 81.3429 33.3091 82.0288 28.5091zM64.8823 5.09091 63.0991 17.3091 60.4928 17.8909 62.276 5.09091H57.0635L52.9483 34.9091h5.2126l1.7832-13.0909h2.4691L60.63 34.9091h5.2125L69.9577 5.09091H64.8823zM45.4039 35.3455c5.3497.0 6.8586-4.0728 6.8586-8 0-3.0546-.9602-5.3819-2.1948-7.8546l-1.5089-2.9091c-1.2345-2.4727-1.646-4.2182-1.646-5.5273C46.9128 9.6 47.3243 8.72727 48.2845 8.72727c.823.0 1.3717.436369999999998 1.0974 2.76363L48.9704 14.2545l4.9382-1.1636L54.0457 11.9273C54.7316 6.54545 52.2625 4.8 48.4217 4.8c-4.1152.0-6.5843 2.76364-6.5843 7.4182.0 2.4727.9602 4.8 2.1948 7.4182l1.3717 2.9091c1.0974 2.3272 1.6461 4.2181 1.6461 5.9636.0 1.4545-.2744 2.9091-1.5089 2.9091C44.718 31.4182 44.0322 30.8364 44.4437 28.3636L44.8552 25.0182 39.917 26.1818 39.6427 27.7818C38.8196 33.4545 41.5631 35.3455 45.4039 35.3455zM0 40l10.6994-2.6182L11.5224 30.8364c1.0974 3.3454 4.3895 5.3818 7.6817 5.3818 5.3497.0 9.1905-4.8 9.1905-9.8909.0-4.2182-2.6063-7.1273-5.7612-8.1455H29.492L32.2354.0 21.536 2.61818l-.9602 6.54546c-1.0974-3.34546-4.3895-5.38182-7.6816-5.38182-5.34975.0-9.19056 4.8-9.19056 9.89088.0 4.2182 2.60627 7.1273 5.76122 8.1455H2.60627L0 40z" fill="red"/></svg>