<?xml version="1.0" encoding="utf-8"?>
<!-- Generator: Adobe Illustrator 19.0.0, SVG Export Plug-In . SVG Version: 6.00 Build 0)  -->
<svg version="1.1" id="layer" xmlns="http://www.w3.org/2000/svg" xmlns:xlink="http://www.w3.org/1999/xlink" x="0px" y="0px"
	 viewBox="-153 -46 652 652" style="enable-background:new -153 -46 652 652;" xml:space="preserve">
<style type="text/css">
	.st0{fill:#FFCC00;}
	.st1{fill:#164194;}
	.st2{fill:#E40521;}
</style>
<path d="M422.7,409.2c-6.4,0-11.2,4.9-11.2,11.2c0,6.3,4.8,11.2,11.2,11.2c6.4,0,11.2-4.9,11.2-11.2
	C433.9,414.1,429.1,409.2,422.7,409.2 M422.7,411.6c5,0,8.8,3.8,8.8,8.8c0,5-3.8,8.8-8.8,8.8c-5,0-8.8-3.8-8.8-8.8
	C413.9,415.4,417.7,411.6,422.7,411.6"/>
<path d="M33,508.1c-13.5,0-21.2-11.9-21.2-25.9c0-14,7.8-26,21.2-26c13.5,0,21.2,12,21.2,26C54.3,496.2,46.5,508.1,33,508.1
	 M33,438.4c-27.3,0-43.1,19.2-43.1,43.8S5.8,526,33,526c27.3,0,43.1-19.2,43.1-43.8S60.3,438.4,33,438.4"/>
<path d="M132.1,438.4c-11,0-20,6-26.3,15v-13.7H84.9v84.9h20.9v-33.9c0-22.4,9.3-34.5,19.4-34.5c7.1,0,12.1,3.9,12.1,14v54.4h20.9
	V464C158.2,447,147.2,438.4,132.1,438.4"/>
<path d="M209.9,508.1c-11,0-19.5-9.1-19.5-25.9s8.6-26,19.5-26c11,0,19.7,9.1,19.7,26S220.8,508.1,209.9,508.1 M212.7,438.4
	c-8.6,0-16.8,4.4-20.6,9.1V410h-20.9v114.6h20.9v-8.7c2.4,4.4,10.1,10.1,20.6,10.1c25.6,0,38.7-17.7,38.7-43.8
	C251.5,456.1,238.3,438.4,212.7,438.4"/>
<path d="M271.1,409.2c-6.4,0-11.2,4.9-11.2,11.2c0,6.3,4.8,11.2,11.2,11.2c6.4,0,11.2-4.9,11.2-11.2
	C282.4,414.1,277.6,409.2,271.1,409.2"/>
<rect x="260.7" y="439.7" width="20.9" height="84.9"/>
<g>
	<path d="M391,431.7c6.4,0,11.2-4.9,11.2-11.2c0-6.3-4.8-11.2-11.2-11.2c-6.4,0-11.2,4.9-11.2,11.2
		C379.8,426.7,384.6,431.7,391,431.7"/>
</g>
<rect x="380.6" y="439.7" width="20.9" height="84.9"/>
<g>
	<path d="M341.6,438.4c-11,0-20,6-26.3,15v-13.7h-20.9v84.9h20.9v-33.9c0-22.4,9.3-34.5,19.4-34.5c7.1,0,12.1,3.9,12.1,14v54.4h20.9
		V464C367.7,447,356.7,438.4,341.6,438.4"/>
</g>
<polygon points="-8.5,410 -35.4,410 -75.1,454.2 -75.1,410 -97,410 -97,524.6 -75.1,524.6 -75.1,484.1 -63.8,471.5 -29.7,524.6 
	-3.8,524.6 -48.6,454.6 "/>
<g>
	<path d="M424.4,417.6c0-0.9-0.6-1.3-1.3-1.3H421v2.6h2.1C423.8,418.8,424.4,418.5,424.4,417.6 M424.4,420.7l3.2,5.2h-2.4l-3.1-5
		H421v5h-2.1v-11.5h4.2c2.3,0,3.5,1.4,3.5,3.3C426.6,419.1,425.8,420.2,424.4,420.7"/>
	<path class="st0" d="M313.5,309.5l-80.6-124.1L121.3,357.4H288c0.5,0,1,0,1.6,0C313.2,356.3,326.4,329.4,313.5,309.5"/>
	<path class="st1" d="M159.8,26h-138C2.7,26-12.9,41.6-12.9,60.7v231.2L159.8,26z"/>
	<path class="st2" d="M281.5,26c-0.5,0-1,0-1.6,0H159.8L-12.9,291.9v30.7c0,19.1,15.6,34.7,34.7,34.7h99.4l111.7-171.9l72.5-111.6
		C318.3,54,305.1,27.1,281.5,26"/>
</g>
</svg>
